<svg width="200" height="120" viewBox="0 0 200 120" fill="none" xmlns="http://www.w3.org/2000/svg">
  <!-- Fundo preto do gráfico (sem o botão branco) -->
  <rect x="5" y="5" width="190" height="110" rx="12" fill="#000000" />
  
  <!-- Coluna 1 -->
  <rect x="18" y="90" width="10" height="6" rx="1" fill="#00E5FF" />
  <rect x="18" y="80" width="10" height="6" rx="1" fill="#00E5FF" />
  
  <!-- Coluna 2 -->
  <rect x="34" y="90" width="10" height="6" rx="1" fill="#00E5FF" />
  <rect x="34" y="80" width="10" height="6" rx="1" fill="#00E5FF" />
  <rect x="34" y="70" width="10" height="6" rx="1" fill="#00E5FF" />
  
  <!-- Coluna 3 -->
  <rect x="50" y="90" width="10" height="6" rx="1" fill="#00E5FF" />
  <rect x="50" y="80" width="10" height="6" rx="1" fill="#00E5FF" />
  <rect x="50" y="70" width="10" height="6" rx="1" fill="#00E5FF" />
  <rect x="50" y="60" width="10" height="6" rx="1" fill="#00D26A" />
  <rect x="50" y="50" width="10" height="6" rx="1" fill="#00D26A" />

  <!-- Coluna 4 -->
  <rect x="66" y="90" width="10" height="6" rx="1" fill="#00E5FF" />
  <rect x="66" y="80" width="10" height="6" rx="1" fill="#00E5FF" />
  <rect x="66" y="70" width="10" height="6" rx="1" fill="#00D26A" />
  <rect x="66" y="60" width="10" height="6" rx="1" fill="#00D26A" />
  <rect x="66" y="50" width="10" height="6" rx="1" fill="#00D26A" />
  <rect x="66" y="40" width="10" height="6" rx="1" fill="#FFC107" />
  <rect x="66" y="30" width="10" height="6" rx="1" fill="#FF5252" />

  <!-- Coluna 5 -->
  <rect x="82" y="90" width="10" height="6" rx="1" fill="#00E5FF" />
  <rect x="82" y="80" width="10" height="6" rx="1" fill="#00E5FF" />
  <rect x="82" y="70" width="10" height="6" rx="1" fill="#00D26A" />
  <rect x="82" y="60" width="10" height="6" rx="1" fill="#00D26A" />
  <rect x="82" y="50" width="10" height="6" rx="1" fill="#00D26A" />
  <rect x="82" y="40" width="10" height="6" rx="1" fill="#FFC107" />
  <rect x="82" y="30" width="10" height="6" rx="1" fill="#FFC107" />
  <rect x="82" y="20" width="10" height="6" rx="1" fill="#FF5252" />
  
  <!-- Coluna 6 -->
  <rect x="98" y="90" width="10" height="6" rx="1" fill="#00E5FF" />
  <rect x="98" y="80" width="10" height="6" rx="1" fill="#00E5FF" />
  <rect x="98" y="70" width="10" height="6" rx="1" fill="#00D26A" />
  <rect x="98" y="60" width="10" height="6" rx="1" fill="#00D26A" />
  <rect x="98" y="50" width="10" height="6" rx="1" fill="#FFC107" />
  <rect x="98" y="40" width="10" height="6" rx="1" fill="#FF5252" />

  <!-- Coluna 7 -->
  <rect x="114" y="90" width="10" height="6" rx="1" fill="#00E5FF" />
  <rect x="114" y="80" width="10" height="6" rx="1" fill="#00E5FF" />
  <rect x="114" y="70" width="10" height="6" rx="1" fill="#00D26A" />
  <rect x="114" y="60" width="10" height="6" rx="1" fill="#00D26A" />
  
  <!-- Coluna 8 -->
  <rect x="130" y="90" width="10" height="6" rx="1" fill="#00E5FF" />
  <rect x="130" y="80" width="10" height="6" rx="1" fill="#00E5FF" />
  <rect x="130" y="70" width="10" height="6" rx="1" fill="#00D26A" />
  <rect x="130" y="60" width="10" height="6" rx="1" fill="#00D26A" />
  <rect x="130" y="50" width="10" height="6" rx="1" fill="#FFC107" />

  <!-- Coluna 9 -->
  <rect x="146" y="90" width="10" height="6" rx="1" fill="#00E5FF" />
  <rect x="146" y="80" width="10" height="6" rx="1" fill="#00E5FF" />
  
  <!-- Coluna 10 -->
  <rect x="162" y="90" width="10" height="6" rx="1" fill="#00E5FF" />
  <rect x="162" y="80" width="10" height="6" rx="1" fill="#00E5FF" />
  <rect x="162" y="70" width="10" height="6" rx="1" fill="#00D26A" />
</svg>
